<svg width="48" height="48" viewBox="0 0 48 48" fill="none" xmlns="http://www.w3.org/2000/svg">
<path fill-rule="evenodd" clip-rule="evenodd" d="M34.0847 8.60154V23.2404H41.4576V8.60154C41.4576 6.58587 39.796 4.93123 37.7711 4.93123C35.7461 4.93123 34.0847 6.58554 34.0847 8.60154ZM15.9522 14.9908C15.456 14.4967 15.456 13.6955 15.9522 13.2014C16.4488 12.7069 17.2536 12.7069 17.7503 13.2014L18.4468 13.8951L20.6975 11.6546C19.1315 10.4485 16.9083 10.5924 15.5095 11.9847C13.9729 13.5148 13.9729 15.9954 15.5095 17.5256C17.046 19.0556 19.5379 19.0556 21.0743 17.5256C22.0326 16.5719 22.4461 15.1752 22.1146 13.8225L19.3459 16.5797C18.8491 17.0735 18.0443 17.0735 17.5481 16.5797L15.9522 14.9908ZM22.5038 9.85596L24.0999 8.26672C24.5961 7.77269 25.4011 7.77269 25.8975 8.26672C26.3935 8.76109 26.3935 9.56238 25.8975 10.0564L24.0824 11.8632C25.3403 14.3544 24.8368 17.3592 22.872 19.315C20.3422 21.834 16.2419 21.834 13.7118 19.315C11.1824 16.7967 11.1824 12.7138 13.7118 10.1952C16.104 7.81342 19.9347 7.66452 22.5038 9.85596ZM10.3559 36.3187C9.65359 36.3187 9.08456 36.8854 9.08456 37.5844C9.08456 38.2833 9.65359 38.85 10.3559 38.85C11.0578 38.85 11.6272 38.2833 11.6272 37.5844C11.6272 36.8854 11.0578 36.3187 10.3559 36.3187ZM15.4406 38.85C14.7381 38.85 14.1695 38.2833 14.1695 37.5844C14.1695 36.8854 14.7381 36.3187 15.4406 36.3187H27.7288C28.4307 36.3187 28.9999 36.8854 28.9999 37.5844C28.9999 38.2833 28.4307 38.85 27.7288 38.85H15.4406ZM10.3559 31.2564C9.65359 31.2564 9.08456 31.8227 9.08456 32.5219C9.08456 33.2208 9.65359 33.7875 10.3559 33.7875C11.0578 33.7875 11.6272 33.2208 11.6272 32.5219C11.6272 31.8227 11.0578 31.2564 10.3559 31.2564ZM15.4406 33.7875C14.7381 33.7875 14.1695 33.2208 14.1695 32.5219C14.1695 31.8227 14.7381 31.2564 15.4406 31.2564H27.7288C28.4307 31.2564 28.9999 31.8227 28.9999 32.5219C28.9999 33.2208 28.4307 33.7875 27.7288 33.7875H15.4406ZM34.0847 25.7717V44.3343C34.0847 45.0334 33.5156 45.5999 32.8135 45.5999H5.27114C4.56869 45.5999 4 45.0334 4 44.3343V8.47494C4 5.12745 6.73903 2.3999 10.1017 2.3999H37.7711C41.1995 2.3999 44 5.1883 44 8.60154V24.5059C44 25.205 43.4308 25.7717 42.7287 25.7717H34.0847ZM32.7568 4.93123C31.9944 5.96001 31.5424 7.23049 31.5424 8.60154V43.0687H6.54228V8.47494C6.54228 6.52486 8.14275 4.93123 10.1017 4.93123H32.7568ZM10.3559 26.1937C9.65359 26.1937 9.08456 26.7604 9.08456 27.4593C9.08456 28.1583 9.65359 28.725 10.3559 28.725C11.0578 28.725 11.6272 28.1583 11.6272 27.4593C11.6272 26.7604 11.0578 26.1937 10.3559 26.1937ZM15.4406 28.725H27.7288C28.4307 28.725 28.9999 28.1583 28.9999 27.4593C28.9999 26.7604 28.4307 26.1937 27.7288 26.1937H15.4406C14.7381 26.1937 14.1695 26.7604 14.1695 27.4593C14.1695 28.1583 14.7381 28.725 15.4406 28.725Z" fill="#0080F1"/>
</svg>
