<svg width="48" height="48" viewBox="0 0 48 48" fill="none" xmlns="http://www.w3.org/2000/svg">
<path d="M5.53536 37.438C3.9314 37.438 2.36439 37.0287 0.944236 36.2312C0.213543 35.855 -0.0694668 34.9135 0.367048 34.2053C1.81738 31.8878 2.34111 29.0549 1.67707 26.3908C0.98879 23.6288 -0.00709065 21.3026 3.80585e-05 18.3787C0.0247509 8.12065 8.56316 -0.195506 18.811 0.00349872C28.7093 0.20286 36.8668 8.52329 36.8669 18.4239C36.867 31.3542 23.3156 40.4324 11.352 35.4392C9.70305 36.7336 7.63037 37.438 5.53536 37.438ZM3.58637 34.281C5.84 34.9809 8.37461 34.4218 10.1125 32.7417C10.5407 32.3276 11.1812 32.2234 11.7185 32.4804C21.9609 37.3774 34.0154 29.7018 34.0153 18.4239C34.0153 10.0082 27.1689 3.02374 18.7537 2.85432C10.0813 2.68205 2.87243 9.70556 2.85152 18.3856C2.84475 21.1628 3.92831 23.3823 4.52047 26.0131C5.14435 28.7855 4.81572 31.7172 3.58637 34.281Z" fill="#0080F1"/>
<path d="M42.4644 48C40.3695 48 38.2967 47.2955 36.648 46.0014C30.2856 48.6567 22.7175 47.4474 17.5008 42.9424C16.9049 42.4277 16.839 41.5275 17.3536 40.9315C17.8683 40.3356 18.7686 40.2696 19.3645 40.7844C23.9913 44.7799 30.7672 45.6787 36.2814 43.0426C36.8186 42.7855 37.459 42.8898 37.8874 43.3038C39.6251 44.9838 42.1599 45.5433 44.4135 44.843C42.9633 41.8182 42.7624 38.3529 43.8862 35.1449C43.8963 35.116 43.9074 35.0876 43.9192 35.0593C44.74 33.1245 45.1536 31.0682 45.1485 28.9477C45.1394 25.209 43.8957 21.7506 41.5515 18.9461C41.0466 18.3418 41.127 17.4428 41.7312 16.9378C42.3352 16.4328 43.2345 16.5133 43.7395 17.1175C46.4764 20.392 47.9895 24.5908 47.9999 28.9408C48.006 31.4323 47.5226 33.8503 46.5632 36.1286C45.5554 39.0457 46.0189 42.1691 47.6327 44.7671C48.0696 45.4754 47.7863 46.417 47.0554 46.7935C45.6355 47.5906 44.0681 47.9999 42.4644 48Z" fill="#0080F1"/>
<path d="M18.4333 20.7497C19.6792 20.7497 20.6893 19.7402 20.6893 18.495C20.6893 17.2497 19.6792 16.2402 18.4333 16.2402C17.1873 16.2402 16.1773 17.2497 16.1773 18.495C16.1773 19.7402 17.1873 20.7497 18.4333 20.7497Z" fill="#0080F1"/>
<path d="M10.1217 20.7497C11.3676 20.7497 12.3777 19.7402 12.3777 18.495C12.3777 17.2497 11.3676 16.2402 10.1217 16.2402C8.87571 16.2402 7.86566 17.2497 7.86566 18.495C7.86566 19.7402 8.87571 20.7497 10.1217 20.7497Z" fill="#0080F1"/>
<path d="M26.745 20.7497C27.9909 20.7497 29.001 19.7402 29.001 18.495C29.001 17.2497 27.9909 16.2402 26.745 16.2402C25.499 16.2402 24.489 17.2497 24.489 18.495C24.489 19.7402 25.499 20.7497 26.745 20.7497Z" fill="#0080F1"/>
</svg>
