<svg width="48" height="48" viewBox="0 0 48 48" fill="none" xmlns="http://www.w3.org/2000/svg">
<path d="M46.0141 10.7347L37.2301 1.98457C36.983 1.73835 36.6478 1.6001 36.2984 1.6001H16.0941C13.9144 1.6001 12.1412 3.36646 12.1412 5.5376V22.8484C6.22 23.5034 1.59998 28.5178 1.59998 34.5876C1.59998 41.101 6.91984 46.4001 13.4588 46.4001H42.447C44.6267 46.4001 46.4 44.6337 46.4 42.4626V11.6629C46.4 11.3147 46.2612 10.981 46.0141 10.7347ZM37.6157 6.08124L41.9012 10.3501H37.6157V6.08124ZM4.23527 34.5876C4.23527 29.5216 8.37295 25.4001 13.4588 25.4001C18.5447 25.4001 22.6823 29.5216 22.6823 34.5876C22.6823 39.6536 18.5447 43.7751 13.4588 43.7751C8.37295 43.7751 4.23527 39.6536 4.23527 34.5876ZM42.447 43.7751H20.9034C23.2719 41.8672 24.8905 39.0712 25.2441 35.9001H38.9333C39.661 35.9001 40.251 35.3124 40.251 34.5876C40.251 33.8627 39.661 33.2751 38.9333 33.2751H25.244C25.0291 31.3483 24.3477 29.5599 23.3143 28.0251H38.9333C39.661 28.0251 40.251 27.4374 40.251 26.7126C40.251 25.9877 39.661 25.4001 38.9333 25.4001H20.9034C19.1886 24.0188 17.0813 23.1034 14.7764 22.8484V5.5376C14.7764 4.81389 15.3675 4.2251 16.0941 4.2251H34.9804V11.6626C34.9804 12.3874 35.5703 12.9751 36.298 12.9751H43.7647V42.4626C43.7647 43.1863 43.1736 43.7751 42.447 43.7751Z" fill="#0080F1"/>
<path d="M38.9333 17.5251H19.6078C18.8801 17.5251 18.2902 18.1127 18.2902 18.8376C18.2902 19.5624 18.8801 20.1501 19.6078 20.1501H38.9333C39.661 20.1501 40.251 19.5624 40.251 18.8376C40.251 18.1127 39.661 17.5251 38.9333 17.5251Z" fill="#0080F1"/>
<path d="M18.6948 31.2971C18.1803 30.7846 17.3459 30.7846 16.8314 31.2971L11.6141 36.494L9.91046 34.797C9.39597 34.2845 8.56163 34.2845 8.04705 34.797C7.53246 35.3095 7.53246 36.1405 8.04705 36.6531L10.6823 39.2781C10.9396 39.5344 11.2769 39.6626 11.6141 39.6626C11.9513 39.6626 12.2886 39.5344 12.5458 39.2781L18.6948 33.1531C19.2094 32.6406 19.2094 31.8096 18.6948 31.2971Z" fill="#0080F1"/>
</svg>
