<svg width="48" height="48" viewBox="0 0 48 48" fill="none" xmlns="http://www.w3.org/2000/svg">
<g clip-path="url(#clip0_302_527)">
<path d="M12.036 33.4576L10.702 38.8298L22.5936 36.8968V47.9941H25.4063V36.8967L37.2979 38.8297L35.9639 33.4575L47.9999 24.0986L43.7534 22.0717L46.4451 13.7013L38.6614 15.5291L38.2488 10.6525L31.9821 16.3667L33.8033 4.91449L28.4536 6.79408L24 0.00634766L19.5464 6.79408L14.1965 4.91449L16.0177 16.3667L9.75104 10.6525L9.33852 15.5291L1.55492 13.7013L4.24652 22.0717L0 24.0986L12.036 33.4576ZM5.75559 17.577L11.8666 19.012L12.0727 16.5758L20.0567 23.856L17.7152 9.13195L20.6906 10.1772L24 5.13341L27.3092 10.1772L30.2847 9.13185L27.9432 23.856L35.9272 16.5758L36.1334 19.012L42.2443 17.577L40.3232 23.551L42.6771 24.6746L32.7933 32.36L33.5405 35.3694L23.9999 33.8186L14.4592 35.3694L15.2064 32.36L5.32273 24.6746L7.67662 23.551L5.75559 17.577Z" fill="#0080F1"/>
</g>
<defs>
<clipPath id="clip0_302_527">
<rect width="48" height="48" fill="white"/>
</clipPath>
</defs>
</svg>
